<svg xmlns="http://www.w3.org/2000/svg" xmlns:xlink="http://www.w3.org/1999/xlink" viewBox="0 0 539.21 414.41"><defs><style>.cls-1{fill:#3da0c6;}.cls-1,.cls-10,.cls-11,.cls-12,.cls-13,.cls-14,.cls-15,.cls-16,.cls-17,.cls-18,.cls-19,.cls-2,.cls-20,.cls-21,.cls-22,.cls-23,.cls-24,.cls-25,.cls-26,.cls-27,.cls-28,.cls-29,.cls-3,.cls-30,.cls-31,.cls-32,.cls-33,.cls-34,.cls-35,.cls-36,.cls-37,.cls-38,.cls-39,.cls-4,.cls-40,.cls-41,.cls-42,.cls-43,.cls-44,.cls-45,.cls-46,.cls-47,.cls-48,.cls-49,.cls-5,.cls-50,.cls-51,.cls-52,.cls-53,.cls-54,.cls-55,.cls-56,.cls-57,.cls-58,.cls-59,.cls-6,.cls-60,.cls-61,.cls-62,.cls-63,.cls-64,.cls-65,.cls-66,.cls-7,.cls-8,.cls-9{stroke:#f2f2f2;stroke-width:1.14px;}.cls-1,.cls-10,.cls-11,.cls-12,.cls-13,.cls-14,.cls-15,.cls-16,.cls-17,.cls-18,.cls-19,.cls-2,.cls-20,.cls-21,.cls-22,.cls-23,.cls-24,.cls-25,.cls-26,.cls-27,.cls-28,.cls-29,.cls-3,.cls-30,.cls-31,.cls-32,.cls-33,.cls-34,.cls-35,.cls-36,.cls-37,.cls-38,.cls-39,.cls-4,.cls-40,.cls-41,.cls-42,.cls-43,.cls-44,.cls-45,.cls-46,.cls-47,.cls-48,.cls-49,.cls-5,.cls-50,.cls-51,.cls-52,.cls-53,.cls-54,.cls-55,.cls-56,.cls-57,.cls-58,.cls-59,.cls-6,.cls-60,.cls-61,.cls-62,.cls-63,.cls-64,.cls-65,.cls-66,.cls-7,.cls-71,.cls-77,.cls-8,.cls-9{stroke-miterlimit:10;}.cls-2{fill:#73c8c6;}.cls-3{fill:#79cbc1;}.cls-4{fill:#1e4380;}.cls-5{fill:#1e427f;}.cls-6,.cls-68{fill:#20407e;}.cls-7{fill:#207eb7;}.cls-8{fill:#3195c3;}.cls-9{fill:#1778b3;}.cls-10{fill:#49aed0;}.cls-11{fill:#bde0be;}.cls-12{fill:#80cdc1;}.cls-13{fill:#79c5c0;}.cls-14{fill:#43adc7;}.cls-15{fill:#44a8cc;}.cls-16{fill:#308dbf;}.cls-17{fill:#6fc3c6;}.cls-18{fill:#59b6cf;}.cls-19{fill:#87d2b9;}.cls-20{fill:#b9dcba;}.cls-21{fill:#97d2b9;}.cls-22{fill:#add9b7;}.cls-23{fill:#bddfbb;}.cls-24{fill:#6cc1c7;}.cls-25{fill:#76c7c4;}.cls-26{fill:#9ad3b6;}.cls-27{fill:#b0dbb8;}.cls-28{fill:#bde1bc;}.cls-29{fill:#d6ead0;}.cls-30{fill:#abd8b5;}.cls-31{fill:#cde6c7;}.cls-32{fill:#c1e1bc;}.cls-33{fill:#87cfbd;}.cls-34{fill:#98d3b6;}.cls-35{fill:#c3e1bf;}.cls-36{fill:#cce4c2;}.cls-37{fill:#d1e7c9;}.cls-38{fill:#dfeed9;}.cls-39{fill:#d0e6c8;}.cls-40{fill:#c2e0bf;}.cls-41{fill:#d0e7ca;}.cls-42{fill:#b9deba;}.cls-43{fill:#a3d4b2;}.cls-44{fill:#a7d7b5;}.cls-45{fill:#cfe8c8;}.cls-46{fill:#daecd5;}.cls-47{fill:#e1efdb;}.cls-48{fill:#f2f8ec;}.cls-49{fill:#cee6c6;}.cls-50{fill:#d7ead0;}.cls-51{fill:#d2e7cd;}.cls-52{fill:#b1dab8;}.cls-53{fill:#c1e1be;}.cls-54{fill:#edf4e5;}.cls-55{fill:#f5f8ed;}.cls-56{fill:#d1eacb;}.cls-57{fill:#c8e5c1;}.cls-58{fill:#c5e2c0;}.cls-59{fill:#cce5c3;}.cls-60{fill:#eff4e6;}.cls-61{fill:#999;}.cls-62{fill:#cae5c2;}.cls-63{fill:#d4e9cb;}.cls-64{fill:#dfefd9;}.cls-65{fill:#d0e6c9;}.cls-66{fill:#e4f2df;}.cls-67{fill:url(#未命名的渐变_13);}.cls-68{font-size:16.86px;font-family:Roboto-Medium, Roboto;}.cls-69{letter-spacing:-0.01em;}.cls-70{letter-spacing:-0.02em;}.cls-71,.cls-77{fill:none;}.cls-71{stroke:#4d4d4d;stroke-width:2.29px;}.cls-72,.cls-73{fill:#4d4d4d;}.cls-73{font-size:15.01px;font-family:Roboto-Thin, Roboto;}.cls-74{letter-spacing:-0.01em;}.cls-75{letter-spacing:-0.01em;}.cls-76{opacity:0.5;}.cls-77{stroke:#fff;stroke-width:6.72px;}.cls-78{fill:#fff;}</style><linearGradient id="未命名的渐变_13" x1="425.62" y1="791.18" x2="732.75" y2="791.18" gradientTransform="translate(-121.28 -584.02)" gradientUnits="userSpaceOnUse"><stop offset="0" stop-color="#eff4e6"/><stop offset="0.07" stop-color="#e6f0e4"/><stop offset="0.19" stop-color="#cce6dd"/><stop offset="0.34" stop-color="#a3d6d2"/><stop offset="0.5" stop-color="#73c3c6"/><stop offset="0.64" stop-color="#5ea2b4"/><stop offset="0.94" stop-color="#2a5087"/><stop offset="1" stop-color="#20407e"/></linearGradient></defs><title>资源 2</title><g id="图层_2" data-name="图层 2"><g id="_03" data-name="03"><rect class="cls-1" x="23.92" y="29.95" width="35.44" height="35.44"/><rect class="cls-2" x="59.37" y="29.95" width="35.44" height="35.44"/><rect class="cls-3" x="94.81" y="29.95" width="35.44" height="35.44"/><rect class="cls-4" x="130.26" y="29.95" width="35.44" height="35.44"/><rect class="cls-5" x="165.7" y="29.95" width="35.44" height="35.44"/><rect class="cls-6" x="201.15" y="29.95" width="35.44" height="35.44"/><rect class="cls-7" x="236.59" y="29.95" width="35.44" height="35.44"/><rect class="cls-8" x="272.03" y="29.95" width="35.44" height="35.44"/><rect class="cls-9" x="307.48" y="29.95" width="35.44" height="35.44"/><rect class="cls-10" x="342.92" y="29.95" width="35.44" height="35.44"/><rect class="cls-11" x="23.92" y="65.39" width="35.44" height="35.44"/><rect class="cls-12" x="59.37" y="65.39" width="35.44" height="35.44"/><rect class="cls-13" x="94.81" y="65.39" width="35.44" height="35.44"/><rect class="cls-14" x="130.26" y="65.39" width="35.44" height="35.44"/><rect class="cls-15" x="165.7" y="65.39" width="35.44" height="35.44"/><rect class="cls-16" x="201.15" y="65.39" width="35.44" height="35.44"/><rect class="cls-17" x="236.59" y="65.39" width="35.44" height="35.44"/><rect class="cls-18" x="272.03" y="65.39" width="35.44" height="35.44"/><rect class="cls-19" x="307.48" y="65.39" width="35.44" height="35.44"/><rect class="cls-20" x="342.92" y="65.39" width="35.44" height="35.44"/><rect class="cls-21" x="23.92" y="100.83" width="35.44" height="35.44"/><rect class="cls-21" x="59.37" y="100.83" width="35.44" height="35.44"/><rect class="cls-22" x="94.81" y="100.83" width="35.44" height="35.44"/><rect class="cls-23" x="130.26" y="100.83" width="35.44" height="35.44"/><rect class="cls-24" x="165.7" y="100.83" width="35.44" height="35.44"/><rect class="cls-25" x="201.15" y="100.83" width="35.44" height="35.44"/><rect class="cls-26" x="236.59" y="100.83" width="35.44" height="35.44"/><rect class="cls-27" x="272.03" y="100.83" width="35.44" height="35.44"/><rect class="cls-28" x="307.48" y="100.83" width="35.44" height="35.44"/><rect class="cls-29" x="342.92" y="100.83" width="35.44" height="35.44"/><rect class="cls-30" x="23.92" y="136.28" width="35.44" height="35.44"/><rect class="cls-30" x="59.37" y="136.28" width="35.44" height="35.44"/><rect class="cls-31" x="94.81" y="136.28" width="35.44" height="35.44"/><rect class="cls-32" x="130.26" y="136.28" width="35.44" height="35.44"/><rect class="cls-33" x="165.7" y="136.28" width="35.44" height="35.44"/><rect class="cls-34" x="201.15" y="136.28" width="35.44" height="35.44"/><rect class="cls-35" x="236.59" y="136.28" width="35.44" height="35.44"/><rect class="cls-36" x="272.03" y="136.28" width="35.44" height="35.44"/><rect class="cls-37" x="307.48" y="136.28" width="35.44" height="35.44"/><rect class="cls-38" x="342.92" y="136.28" width="35.44" height="35.44"/><rect class="cls-39" x="23.92" y="171.72" width="35.44" height="35.44"/><rect class="cls-40" x="59.37" y="171.72" width="35.44" height="35.44"/><rect class="cls-41" x="94.81" y="171.72" width="35.44" height="35.44"/><rect class="cls-42" x="130.26" y="171.72" width="35.44" height="35.44"/><rect class="cls-43" x="165.7" y="171.72" width="35.44" height="35.44"/><rect class="cls-44" x="201.15" y="171.72" width="35.44" height="35.44"/><rect class="cls-45" x="236.59" y="171.72" width="35.44" height="35.44"/><rect class="cls-46" x="272.03" y="171.72" width="35.44" height="35.44"/><rect class="cls-47" x="307.48" y="171.72" width="35.44" height="35.44"/><rect class="cls-48" x="342.92" y="171.72" width="35.44" height="35.44"/><rect class="cls-39" x="23.92" y="207.17" width="35.44" height="35.44"/><rect class="cls-49" x="59.37" y="207.17" width="35.44" height="35.44"/><rect class="cls-50" x="94.81" y="207.17" width="35.44" height="35.44"/><rect class="cls-51" x="130.26" y="207.17" width="35.44" height="35.44"/><rect class="cls-52" x="165.7" y="207.17" width="35.44" height="35.44"/><rect class="cls-53" x="201.15" y="207.17" width="35.44" height="35.44"/><rect class="cls-45" x="236.59" y="207.17" width="35.44" height="35.44"/><rect class="cls-38" x="272.03" y="207.17" width="35.44" height="35.44"/><rect class="cls-54" x="307.48" y="207.17" width="35.44" height="35.44"/><rect class="cls-55" x="342.92" y="207.17" width="35.44" height="35.44"/><rect class="cls-56" x="23.92" y="242.61" width="35.44" height="35.44"/><rect class="cls-49" x="59.37" y="242.61" width="35.44" height="35.44"/><rect class="cls-50" x="94.81" y="242.61" width="35.44" height="35.44"/><rect class="cls-50" x="130.26" y="242.61" width="35.44" height="35.44"/><rect class="cls-53" x="165.7" y="242.61" width="35.44" height="35.44"/><rect class="cls-57" x="201.15" y="242.61" width="35.44" height="35.44"/><rect class="cls-38" x="236.59" y="242.61" width="35.44" height="35.44"/><rect class="cls-38" x="272.03" y="242.61" width="35.44" height="35.44"/><rect class="cls-54" x="307.48" y="242.61" width="35.44" height="35.44"/><rect class="cls-55" x="342.92" y="242.61" width="35.44" height="35.44"/><rect class="cls-56" x="23.92" y="278.06" width="35.44" height="35.44"/><rect class="cls-37" x="59.37" y="278.06" width="35.44" height="35.44"/><rect class="cls-37" x="94.81" y="278.06" width="35.44" height="35.44"/><rect class="cls-37" x="130.26" y="278.06" width="35.44" height="35.44"/><rect class="cls-58" x="165.7" y="278.06" width="35.44" height="35.44"/><rect class="cls-59" x="201.15" y="278.06" width="35.44" height="35.44"/><rect class="cls-38" x="236.59" y="278.06" width="35.44" height="35.44"/><rect class="cls-60" x="272.03" y="278.06" width="35.44" height="35.44"/><rect class="cls-61" x="307.48" y="278.06" width="35.44" height="35.44"/><rect class="cls-61" x="342.92" y="278.06" width="35.44" height="35.44"/><rect class="cls-35" x="23.92" y="313.5" width="35.44" height="35.44"/><rect class="cls-62" x="59.37" y="313.5" width="35.44" height="35.44"/><rect class="cls-63" x="94.81" y="313.5" width="35.44" height="35.44"/><rect class="cls-64" x="130.26" y="313.5" width="35.44" height="35.44"/><rect class="cls-65" x="165.7" y="313.5" width="35.44" height="35.44"/><rect class="cls-65" x="201.15" y="313.5" width="35.44" height="35.44"/><rect class="cls-61" x="236.59" y="313.5" width="35.44" height="35.44"/><rect class="cls-61" x="272.03" y="313.5" width="35.44" height="35.44"/><rect class="cls-61" x="307.48" y="313.5" width="35.44" height="35.44"/><rect class="cls-61" x="342.92" y="313.5" width="35.44" height="35.44"/><rect class="cls-66" x="23.92" y="348.95" width="35.44" height="35.44"/><rect class="cls-66" x="59.37" y="348.95" width="35.44" height="35.44"/><rect class="cls-66" x="94.81" y="348.95" width="35.44" height="35.44"/><rect class="cls-61" x="130.26" y="348.95" width="35.44" height="35.44"/><rect class="cls-61" x="165.7" y="348.95" width="35.44" height="35.44"/><rect class="cls-61" x="201.15" y="348.95" width="35.44" height="35.44"/><rect class="cls-61" x="236.59" y="348.95" width="35.44" height="35.44"/><rect class="cls-61" x="272.03" y="348.95" width="35.44" height="35.44"/><rect class="cls-61" x="307.48" y="348.95" width="35.44" height="35.44"/><rect class="cls-61" x="342.92" y="348.95" width="35.44" height="35.44"/><rect class="cls-67" x="301.82" y="193.1" width="354.44" height="28.13" transform="translate(271.88 686.21) rotate(-90)"/><text class="cls-68" transform="translate(421.95 16.91)"><tspan class="cls-69">P</tspan><tspan x="10.67" y="0">otential </tspan><tspan class="cls-70" x="71.83" y="0">V</tspan><tspan x="82.36" y="0">alue</tspan></text><line class="cls-71" x1="24.26" y1="384.39" x2="396.32" y2="384.39"/><polygon class="cls-72" points="393.82 392.95 408.65 384.39 393.82 375.83 393.82 392.95"/><line class="cls-71" x1="23.72" y1="384.39" x2="23.72" y2="12.32"/><polygon class="cls-72" points="32.28 14.83 23.72 0 15.16 14.83 32.28 14.83"/><text class="cls-73" transform="translate(39.27 404.74)">Measu<tspan class="cls-74" x="44.04" y="0">r</tspan><tspan x="48.93" y="0">ement Criteria X</tspan></text><text class="cls-73" transform="translate(12.84 366.32) rotate(-90)">Measu<tspan class="cls-75" x="44.04" y="0">r</tspan><tspan x="48.93" y="0">ement Criteria Y</tspan></text><g class="cls-76"><line class="cls-77" x1="479.05" y1="382.8" x2="479.05" y2="62.48"/><polygon class="cls-78" points="479.05 38.74 492.71 72.19 479.05 64.26 465.38 72.19 479.05 38.74"/></g></g></g></svg>